HIERARCHY
ROOT pelvis
{
  OFFSET 0 100 0
  CHANNELS 6 Xposition Yposition Zposition Zrotation Xrotation Yrotation
  JOINT pelvis_right_femur
  {
    OFFSET -10.78128 -3.44521 -0.5502486
    CHANNELS 3 Zrotation Xrotation Yrotation
    JOINT right_femur_tibia
    {
      OFFSET -0.8047443 -44.0398 -0.1307829
      CHANNELS 3 Zrotation Xrotation Yrotation
      JOINT right_tibia_foot
      {
        OFFSET 3.006224 -47.83518 -5
        CHANNELS 3 Zrotation Xrotation Yrotation
        End Site
        {
          OFFSET 0 -5 15
        }
      }
    }
  }
  JOINT pelvis_left_femur
  {
    OFFSET 10.78128 -3.44521 -0.5502486
    CHANNELS 3 Zrotation Xrotation Yrotation
    JOINT left_femur_tibia
    {
      OFFSET 0.8047443 -44.0398 -0.1307829
      CHANNELS 3 Zrotation Xrotation Yrotation
      JOINT left_tibia_foot
      {
        OFFSET -4.370144 -48.10324 -4.275266
        CHANNELS 3 Zrotation Xrotation Yrotation
        End Site
        {
          OFFSET 0 -5 15
        }
      }
    }
  }
  JOINT pelvis_spine1
  {
    OFFSET 0 6.468898 -3.129235
    CHANNELS 3 Zrotation Xrotation Yrotation
    JOINT spine1
    {
      OFFSET 0 23.15396 4.99043
      CHANNELS 3 Zrotation Xrotation Yrotation
      JOINT spine2
      {
        OFFSET 0 20.79997 -5.064912
        CHANNELS 3 Zrotation Xrotation Yrotation
        JOINT neck
        {
          OFFSET 0 14.38658 9.616178
          CHANNELS 3 Zrotation Xrotation Yrotation
          End Site
          {
            OFFSET 0 20 0
          }
        }
      }
      JOINT right_manubrium
      {
        OFFSET -5.722621 16.35077 3.967754
        CHANNELS 3 Zrotation Xrotation Yrotation
        JOINT right_clavicle
        {
          OFFSET -13.16364 1.694482 -4.693211
          CHANNELS 3 Zrotation Xrotation Yrotation
          JOINT right_humerus
          {
            OFFSET -28.5034 -0.3100689 -2.792744
            CHANNELS 3 Zrotation Xrotation Yrotation
            JOINT right_radius
            {
              OFFSET -25.15693 0.02248979 -1.271978
              CHANNELS 3 Zrotation Xrotation Yrotation
              End Site
              {
                OFFSET -15 0 0
              }
            }
          }
        }
      }
      JOINT left_manubrium
      {
        OFFSET 5.722621 16.35077 3.967754
        CHANNELS 3 Zrotation Xrotation Yrotation
        JOINT left_clavicle
        {
          OFFSET 13.16364 1.694482 -4.693211
          CHANNELS 3 Zrotation Xrotation Yrotation
          JOINT left_humerus
          {
            OFFSET 29.39168 -1.063119 -2.237045
            CHANNELS 3 Zrotation Xrotation Yrotation
            JOINT left_radius
            {
              OFFSET 24.59957 -0.9528479 0.9047498
              CHANNELS 3 Zrotation Xrotation Yrotation
              End Site
              {
                OFFSET 15 -0 -0
              }
            }
          }
        }
      }
    }
  }
}
MOTION
Frames: 11
Frame Time: 0.0416666666667
0 103.5113 0 2.763949 0.413457 0.0376889 2.870743 -15.90636 11.58846 -0 38.09563 -0 -3.587932 -17.9908 -2.671109 -9.322793 8.69561 -23.56019 -0 4.098666 -0 22.57445 -8.096313 30.58845 -3.344893 -2.770562 5.36125 3.020334 10.39845 -7.309728 1.681723 21.9183 6.2018 1.903801 -26.08854 10.39542 5.806415 -20.71213 11.5517 85.42057 38.40335 -17.22906 -0 0 15.07697 -6.226799 8.302276 5.452923 4.918947 -19.3319 -2.264749 -91.94024 23.1006 21.52131 0 0 -19.05892 14.65263 13.53657 -0.5001869
0.394354 103.8419 1.603404 1.973342 0.9164891 0.09312766 4.236033 -18.6301 11.81529 -0 37.88673 -0 -4.677236 -17.1706 -2.356346 -8.987166 8.916045 -23.67318 -0 4.404167 -0 22.73916 -8.75658 31.29329 -3.384679 -2.731879 5.356883 3.053397 10.42505 -7.323782 1.550919 21.84562 6.493745 2.015399 -26.22708 10.51747 5.770835 -20.76959 11.68281 85.56209 38.77541 -17.30072 -0 0 14.91229 -6.244619 8.237684 5.680429 4.959009 -19.40607 -2.221353 -91.58468 22.79686 21.30633 0 0 -19.85497 15.01858 12.83296 -0.9493665
0.2258403 102.303 8.253516 1.356653 -5.434291 0.5585335 1.372563 -22.86564 -1.469485 -0 6.583166 -0 -3.558251 1.894766 -6.40543 -5.297716 15.46209 -6.478707 -0 19.12908 -0 -1.69598 -18.70284 14.32071 -0.5266006 1.830751 3.360263 2.723298 9.654578 -6.301707 2.837639 22.89311 3.049589 1.629726 -17.78814 6.039244 5.610755 -12.84961 11.14609 84.62615 31.16311 -15.88871 -0 0 7.342289 -10.93627 11.00784 6.61077 3.431787 -18.3803 -4.556828 -86.35975 21.01865 12.06011 0 0 -16.10089 4.27349 13.23487 8.595825
0.1470185 101.5249 14.78234 1.228529 -3.891841 0.9139332 1.161197 -26.85404 -1.207445 -0 7.039687 -0 -3.010459 1.719264 -6.06874 -5.60563 16.52352 -6.995435 -0 16.01669 -0 -0.9891583 -20.17466 13.66853 -1.044507 1.782161 4.182673 1.914766 9.776231 -5.738982 2.901654 23.11448 2.921991 1.666981 -15.2028 5.409723 4.810404 -13.47341 11.1882 83.51593 27.97228 -13.4143 -0 0 9.960456 -14.12885 10.84964 8.366481 3.660743 -17.9955 -4.3036 -86.21982 20.793 11.51284 0 0 -15.21678 1.706807 11.56142 10.41331
-0.2407947 100.9145 22.12432 1.709825 -8.925838 1.206497 2.085428 -15.16422 3.234442 -0 13.68856 -0 -1.804868 -3.725829 -10.67768 -4.272255 15.35898 -5.874311 -0 29.51754 -0 -5.529531 -15.24418 16.2011 -1.481793 1.468212 4.808399 1.056019 9.561185 -5.113644 3.112724 23.47687 2.888799 1.501688 -13.62895 5.563057 3.718827 -14.35979 10.84301 83.52852 25.25812 -12.0484 -0 0 12.53304 -16.01257 10.38967 9.008844 4.161667 -17.45756 -3.915728 -86.90894 21.97828 11.72843 0 0 -13.96153 -0.07031304 10.7214 11.62146
-0.514042 100.6391 29.32926 2.10619 -11.72406 1.313301 1.724013 -7.397643 4.243102 -0 17.83406 -0 -3.291664 -7.773761 -11.38246 -3.88633 10.76841 -6.203445 -0 30.47042 -0 -5.097304 -13.89549 19.49307 -1.773313 1.235173 5.296034 0.3485651 9.150494 -4.394281 3.270984 23.89447 2.923506 1.280559 -13.06913 5.93219 2.636819 -15.32984 10.45158 83.6687 23.32565 -10.68104 -0 0 14.731 -17.25822 9.653598 9.501014 4.501092 -16.68709 -3.474299 -88.26161 23.45801 13.03715 0 0 -12.05562 -1.400898 10.26668 12.72298
-0.5484984 100.4815 36.10188 2.120049 -14.20989 1.044774 1.895916 4.145358 5.876822 -0 22.78997 -0 -4.711213 -13.19507 -10.95265 -2.973294 1.198384 -6.948388 -0 32.48429 -0 -5.020587 -11.54691 23.82284 -1.849142 1.148272 5.300274 0.06031406 8.826185 -4.216668 3.334672 24.13041 3.041053 1.100364 -13.18469 6.324306 1.835874 -15.65747 10.09088 84.52611 22.20946 -10.93517 -0 0 15.15526 -17.67085 9.213321 9.443039 4.798581 -16.51701 -3.296913 -88.68348 24.57804 13.21958 0 0 -11.67148 -1.878796 9.876267 13.24414
-0.3651662 100.4584 42.68409 1.961113 -14.14174 0.6175466 1.724543 9.236056 6.324761 -0 24.74636 -0 -4.688102 -15.46213 -9.79385 -2.537075 -4.879849 -7.182083 -0 30.12227 -0 -4.852666 -10.81424 24.94511 -1.928894 1.13938 5.370072 -0.2041744 8.466873 -3.814205 3.400216 24.45734 3.095942 0.9596513 -13.37913 6.620694 1.175036 -16.06916 9.82998 84.82032 21.56875 -10.26137 -0 0 15.69948 -18.06728 8.66867 9.673702 4.902085 -16.0492 -3.060453 -89.60229 25.38867 14.19319 0 0 -10.34638 -2.22063 9.911095 13.64194
-0.009595952 100.4034 49.18851 1.790655 -13.42005 0.1891826 1.539303 12.1724 6.477221 -0 25.88167 -0 -4.075252 -16.29315 -8.561888 -2.252698 -9.196401 -7.17903 -0 27.78982 -0 -4.811231 -10.3339 25.00988 -1.997093 1.129043 5.478727 -0.4276763 8.168708 -3.376349 3.438694 24.74525 3.136616 0.8702255 -13.62698 6.824293 0.6394558 -16.53863 9.658055 84.85805 21.19961 -9.283615 -0 0 16.2825 -18.49007 8.164358 10.06805 4.914477 -15.53543 -2.846153 -90.676 25.88918 15.51161 0 0 -8.795817 -2.456719 10.09595 13.94666
0.4728343 100.328 55.68942 1.700449 -12.57146 -0.1572808 1.273333 13.69718 6.458887 -0 26.98738 -0 -3.438645 -16.16987 -7.584203 -2.196319 -11.8151 -7.149456 -0 25.6918 -0 -4.678397 -10.07753 24.62991 -2.046913 1.096504 5.591285 -0.6186563 7.930014 -2.975176 3.450644 24.97336 3.186879 0.8123576 -13.9375 6.983706 0.1604228 -17.03853 9.527663 84.85611 20.94875 -8.319389 -0 0 16.83066 -18.93376 7.724706 10.52332 4.900781 -15.07598 -2.671842 -91.74 26.19789 16.91365 0 0 -7.325843 -2.602406 10.30405 14.18141
1.053141 100.2667 62.21209 1.665695 -11.77998 -0.4192792 1.016158 14.587 6.395936 -0 28.08853 -0 -2.85334 -15.59522 -6.806908 -2.244794 -13.54211 -7.120346 -0 24.17427 -0 -4.53145 -9.898434 24.14214 -2.073111 1.06239 5.649636 -0.747385 7.764715 -2.69731 3.445362 25.13401 3.244213 0.7755359 -14.26029 7.112991 -0.228516 -17.43827 9.425146 84.93293 20.78082 -7.663963 -0 0 17.15435 -19.28209 7.403692 10.88831 4.89014 -14.77851 -2.564844 -92.53492 26.38235 17.99548 0 0 -6.273179 -2.632056 10.48249 14.30881
